<svg id="mobileLogo" data-name="Layer 1" xmlns="http://www.w3.org/2000/svg" height="40" width="40" viewBox="0 0 100 100"><defs></defs><title>Moment Logo</title><path d="M44.22,95l-0.31,0a45.45,45.45,0,0,1,0-90,2.26,2.26,0,1,1,.61,4.48,40.93,40.93,0,0,0,0,81A2.26,2.26,0,0,1,44.22,95Z"/><path d="M55.77,95a2.26,2.26,0,0,1-.31-4.5,40.93,40.93,0,0,0,0-81A2.26,2.26,0,1,1,56.08,5a45.45,45.45,0,0,1,0,90Z"/><path d="M37.09,39a2.31,2.31,0,0,1,2.33-2.32h0.49A2.44,2.44,0,0,1,42,37.94l8,12.45L58,37.9a2.31,2.31,0,0,1,2.1-1.19h0.48A2.31,2.31,0,0,1,62.91,39V61a2.29,2.29,0,0,1-2.33,2.29A2.33,2.33,0,0,1,58.29,61V45.26L51.88,54.9a2.26,2.26,0,0,1-2,1.2A2.23,2.23,0,0,1,48,54.9l-6.38-9.57V61.05a2.25,2.25,0,0,1-2.28,2.25,2.22,2.22,0,0,1-2.26-2.25V39Z"/></svg>